<?xml version="1.0" standalone="no"?><!DOCTYPE svg PUBLIC "-//W3C//DTD SVG 1.1//EN" "http://www.w3.org/Graphics/SVG/1.1/DTD/svg11.dtd"><svg width="100%" height="100%" viewBox="0 0 272 90" version="1.1" xmlns="http://www.w3.org/2000/svg" xmlns:xlink="http://www.w3.org/1999/xlink" xml:space="preserve" style="fill-rule:evenodd;clip-rule:evenodd;stroke-linejoin:round;stroke-miterlimit:1.41421;"><g id="Layer1"><g><path d="M48.192,11.691l0,9.703c-4.734,-3.96 -9.633,-5.941 -14.695,-5.941c-5.578,0 -10.278,2.004 -14.098,6.012c-3.844,3.984 -5.766,8.859 -5.766,14.625c0,5.695 1.922,10.5 5.766,14.414c3.844,3.914 8.555,5.871 14.133,5.871c2.883,0 5.332,-0.469 7.348,-1.406c1.125,-0.469 2.291,-1.102 3.498,-1.899c1.207,-0.797 2.478,-1.758 3.814,-2.883l0,9.879c-4.687,2.649 -9.609,3.973 -14.766,3.973c-7.757,0 -14.378,-2.707 -19.863,-8.121c-5.461,-5.461 -8.191,-12.047 -8.191,-19.758c0,-6.914 2.285,-13.078 6.855,-18.492c5.625,-6.633 12.903,-9.949 21.832,-9.949c4.875,0 9.586,1.324 14.133,3.972Z" style="fill:#2b2b2b;fill-rule:nonzero;"/><path d="M76.915,39.922l16.804,23.133l-10.019,0l-15.504,-22.219l-1.477,0l0,22.219l-8.191,0l0,-54.282l9.598,0c7.172,0 12.351,1.348 15.539,4.043c3.515,3 5.273,6.961 5.273,11.883c0,3.844 -1.101,7.149 -3.305,9.914c-2.203,2.766 -5.109,4.535 -8.718,5.309ZM66.719,33.699l2.602,0c7.758,0 11.637,-2.965 11.637,-8.894c0,-5.555 -3.774,-8.332 -11.321,-8.332l-2.918,0l0,17.226Z" style="fill:#2b2b2b;fill-rule:nonzero;"/><path d="M133.762,49.871l-23.238,0l-6.047,13.184l-8.824,0l26.859,-57.692l25.911,57.692l-8.965,0l-5.696,-13.184ZM130.423,42.172l-8.051,-18.457l-8.438,18.457l16.489,0Z" style="fill:#2b2b2b;fill-rule:nonzero;"/><path d="M182.313,16.473l-18.914,0l0,13.043l18.246,0l0,7.699l-18.246,0l0,25.84l-8.191,0l0,-54.282l27.105,0l0,7.7Z" style="fill:#2b2b2b;fill-rule:nonzero;"/><path d="M206.782,16.473l0,46.582l-8.192,0l0,-46.582l-12.48,0l0,-7.7l33.117,0l0,7.7l-12.445,0Z" style="fill:#2b2b2b;fill-rule:nonzero;"/><path d="M241.024,39.605l-17.719,-30.832l9.422,0l12.41,21.692l12.446,-21.692l9.422,0l-17.79,30.832l0,23.45l-8.191,0l0,-23.45Z" style="fill:#2b2b2b;fill-rule:nonzero;"/><path d="M34.374,72.892l-5.441,0l0,3.26l5.283,0l0,1.925l-5.283,0l0,4.535l5.441,0l0,1.925l-7.489,0l0,-13.57l7.489,0l0,1.925Z" style="fill:#2b2b2b;fill-rule:nonzero;"/><path d="M78.463,84.537l0,-13.57l2.848,0c1.365,0 2.443,0.135 3.234,0.404c0.85,0.264 1.62,0.712 2.312,1.345c1.4,1.277 2.1,2.956 2.1,5.036c0,2.086 -0.729,3.773 -2.188,5.062c-0.733,0.645 -1.5,1.093 -2.303,1.345c-0.75,0.252 -1.813,0.378 -3.19,0.378l-2.813,0ZM80.511,82.612l0.923,0c0.92,0 1.684,-0.096 2.294,-0.29c0.609,-0.205 1.16,-0.53 1.652,-0.975c1.008,-0.92 1.512,-2.119 1.512,-3.595c0,-1.488 -0.498,-2.695 -1.494,-3.621c-0.897,-0.826 -2.218,-1.239 -3.964,-1.239l-0.923,0l0,9.72Z" style="fill:#2b2b2b;fill-rule:nonzero;"/><path d="M139.911,77.471l5.607,0l0,0.448c0,1.019 -0.12,1.922 -0.36,2.707c-0.234,0.727 -0.63,1.406 -1.186,2.039c-1.26,1.418 -2.863,2.127 -4.808,2.127c-1.898,0 -3.524,-0.686 -4.878,-2.057c-1.353,-1.377 -2.03,-3.029 -2.03,-4.957c0,-1.968 0.688,-3.638 2.065,-5.009c1.377,-1.377 3.053,-2.066 5.028,-2.066c1.06,0 2.05,0.217 2.97,0.65c0.879,0.434 1.743,1.137 2.593,2.11l-1.459,1.397c-1.113,-1.482 -2.47,-2.223 -4.069,-2.223c-1.436,0 -2.64,0.495 -3.613,1.485c-0.972,0.973 -1.459,2.191 -1.459,3.656c0,1.512 0.542,2.757 1.626,3.736c1.014,0.908 2.113,1.362 3.296,1.362c1.008,0 1.913,-0.34 2.716,-1.02c0.803,-0.685 1.251,-1.505 1.345,-2.461l-3.384,0l0,-1.924Z" style="fill:#2b2b2b;fill-rule:nonzero;"/><path d="M196.982,72.892l-5.44,0l0,3.26l5.282,0l0,1.925l-5.282,0l0,4.535l5.44,0l0,1.925l-7.488,0l0,-13.57l7.488,0l0,1.925Z" style="fill:#2b2b2b;fill-rule:nonzero;"/><path d="M248.744,72.988l-1.661,0.985c-0.31,-0.539 -0.606,-0.891 -0.888,-1.055c-0.293,-0.188 -0.67,-0.281 -1.133,-0.281c-0.569,0 -1.04,0.161 -1.415,0.483c-0.375,0.316 -0.563,0.715 -0.563,1.195c0,0.663 0.492,1.196 1.477,1.6l1.353,0.554c1.102,0.445 1.907,0.988 2.417,1.63c0.51,0.642 0.765,1.428 0.765,2.36c0,1.248 -0.416,2.279 -1.248,3.094c-0.838,0.82 -1.878,1.23 -3.12,1.23c-1.178,0 -2.151,-0.348 -2.918,-1.046c-0.756,-0.697 -1.228,-1.678 -1.415,-2.944l2.074,-0.457c0.094,0.797 0.258,1.348 0.492,1.652c0.422,0.586 1.037,0.879 1.846,0.879c0.638,0 1.169,-0.214 1.591,-0.641c0.421,-0.428 0.632,-0.97 0.632,-1.626c0,-0.264 -0.036,-0.506 -0.109,-0.726c-0.074,-0.219 -0.188,-0.421 -0.343,-0.606c-0.156,-0.185 -0.356,-0.357 -0.602,-0.519c-0.246,-0.161 -0.539,-0.314 -0.879,-0.461l-1.31,-0.545c-1.857,-0.785 -2.786,-1.933 -2.786,-3.445c0,-1.02 0.39,-1.872 1.169,-2.558c0.779,-0.691 1.749,-1.037 2.909,-1.037c1.565,0 2.786,0.762 3.665,2.285Z" style="fill:#2b2b2b;fill-rule:nonzero;"/></g></g></svg>